<?xml version="1.0" standalone="no"?>
<!DOCTYPE svg PUBLIC "-//W3C//DTD SVG 20010904//EN"
 "http://www.w3.org/TR/2001/REC-SVG-20010904/DTD/svg10.dtd">
<svg version="1.0" xmlns="http://www.w3.org/2000/svg"
 width="225.000000pt" height="225.000000pt" viewBox="0 0 225.000000 225.000000"
 preserveAspectRatio="xMidYMid meet">
<metadata>
Created by potrace 1.16, written by Peter Selinger 2001-2019
</metadata>
<g transform="translate(0.000000,225.000000) scale(0.100000,-0.100000)"
fill="#000000" stroke="none">
<path d="M1055 1856 c-17 -7 -44 -27 -60 -45 -20 -20 -40 -31 -58 -31 -97 0
-171 -95 -153 -195 7 -33 52 -89 89 -110 14 -8 20 -27 24 -87 l6 -78 -29 0
c-50 0 -74 -25 -74 -75 0 -36 5 -48 31 -69 17 -14 39 -26 48 -26 14 0 20 -11
25 -48 6 -49 56 -142 76 -142 7 0 10 -20 8 -51 l-3 -51 -160 -60 c-173 -64
-209 -87 -225 -150 -6 -21 -9 -86 -8 -145 l3 -108 530 0 530 0 3 108 c1 59 -2
124 -8 145 -16 63 -52 86 -225 150 l-160 60 -3 51 c-2 31 1 51 8 51 20 0 70
93 76 142 5 37 11 48 25 48 9 0 31 12 48 26 26 21 31 33 31 69 0 50 -24 75
-74 75 l-29 0 6 78 c4 60 10 79 24 87 37 21 82 77 89 110 18 100 -56 195 -153
195 -18 0 -38 11 -58 31 -52 56 -133 74 -200 45z m106 -26 c53 -15 87 -56 91
-110 4 -55 31 -64 36 -12 3 27 7 32 30 32 37 0 90 -35 102 -66 25 -64 -2 -140
-58 -163 -31 -13 -42 -35 -42 -83 l0 -28 -195 0 -195 0 0 28 c0 48 -11 70 -42
83 -56 23 -83 99 -58 163 12 31 65 66 102 66 23 0 27 -5 30 -32 5 -52 32 -43
36 12 5 63 49 107 122 119 3 1 21 -4 41 -9z m149 -495 l0 -25 -185 0 -185 0 0
25 0 25 185 0 185 0 0 -25z m0 -159 c0 -52 -5 -107 -11 -123 -23 -62 -109
-123 -174 -123 -65 0 -151 61 -174 123 -6 16 -11 71 -11 123 l0 94 185 0 185
0 0 -94z m-90 -302 c0 -27 -6 -33 -48 -53 l-48 -23 -47 23 c-41 20 -47 27 -47
53 l0 31 95 0 95 0 0 -31z m-157 -107 c-22 -10 -23 -15 -25 -181 l-3 -171
-127 -3 -127 -3 -3 58 c-2 46 -7 59 -20 61 -16 3 -18 -5 -18 -57 l0 -61 -55 0
-55 0 0 115 c0 111 1 116 28 144 20 22 68 45 187 89 l160 59 40 -20 c38 -19
39 -20 18 -30z m407 -33 c64 -24 104 -44 123 -64 26 -29 27 -34 27 -145 l0
-115 -55 0 -55 0 0 61 c0 52 -2 60 -17 57 -14 -2 -19 -15 -21 -61 l-3 -57
-197 2 -197 3 -3 157 -3 158 88 43 87 44 66 -24 c36 -14 108 -41 160 -59z"/>
</g>
</svg>
