<?xml version="1.0" standalone="no"?>
<!DOCTYPE svg PUBLIC "-//W3C//DTD SVG 20010904//EN"
 "http://www.w3.org/TR/2001/REC-SVG-20010904/DTD/svg10.dtd">
<svg version="1.0" xmlns="http://www.w3.org/2000/svg"
 width="360.000000pt" height="360.000000pt" viewBox="0 0 360.000000 360.000000"
 preserveAspectRatio="xMidYMid meet">

<g transform="translate(0.000000,360.000000) scale(0.100000,-0.100000)"
fill="#000000" stroke="none">
<path d="M1748 3040 c-30 -18 -111 -134 -149 -215 -82 -175 -89 -288 -25 -418
43 -87 75 -126 86 -106 10 15 4 33 -26 79 -62 94 -75 231 -35 350 27 79 85
179 140 242 51 58 56 95 9 68z"/>
<path d="M1383 2873 c-32 -32 -99 -176 -124 -268 -31 -114 -24 -152 58 -315
l68 -134 0 -86 c0 -75 -3 -91 -29 -138 -36 -64 -97 -122 -165 -157 -52 -26
-63 -41 -37 -51 24 -9 132 55 177 103 22 25 53 70 67 101 23 49 27 70 27 148
0 97 4 85 -101 284 -59 112 -51 210 32 381 58 121 70 175 27 132z"/>
<path d="M1696 2753 c-58 -91 -60 -192 -7 -312 40 -89 37 -117 -19 -185 -42
-50 -44 -71 -7 -57 35 13 85 86 92 135 6 38 2 56 -30 127 -49 108 -50 159 -6
246 17 34 31 67 31 73 0 23 -31 7 -54 -27z"/>
<path d="M1222 2721 c-8 -4 -24 -38 -38 -75 -43 -119 -30 -224 51 -421 51
-124 56 -175 25 -242 -22 -50 -94 -130 -162 -179 -52 -39 -60 -54 -27 -54 56
0 196 139 229 228 30 79 23 144 -29 267 -23 53 -49 125 -58 158 -19 77 -13
181 15 253 21 51 18 80 -6 65z"/>
<path d="M1867 2693 c-11 -10 -8 -86 4 -145 22 -107 122 -265 161 -257 21 5
14 18 -44 95 -49 63 -78 142 -85 226 -5 63 -21 97 -36 81z"/>
<path d="M2464 2445 c-4 -9 -2 -21 4 -27 15 -15 44 -1 40 19 -4 23 -36 29 -44
8z"/>
<path d="M2284 2315 c-4 -9 -2 -21 4 -27 15 -15 44 -1 40 19 -4 23 -36 29 -44
8z"/>
<path d="M2448 2189 c-2 -7 1 -29 8 -48 36 -101 -10 -218 -113 -287 -29 -19
-53 -39 -53 -45 0 -19 48 -8 86 20 56 41 80 69 106 126 27 60 31 164 8 209
-17 33 -36 44 -42 25z"/>
<path d="M3275 2085 c-94 -64 -193 -133 -222 -152 -37 -25 -56 -46 -64 -70
-10 -30 -38 -53 -230 -179 -121 -79 -229 -148 -240 -154 -17 -10 -26 -6 -59
24 -53 48 -78 59 -117 53 -38 -7 -274 -157 -303 -195 -35 -44 -22 -91 62 -214
68 -101 92 -102 284 -8 189 93 204 112 164 217 l-20 52 23 25 c12 13 119 89
237 168 178 120 221 144 251 144 37 0 159 73 387 231 108 75 125 100 95 141
-39 52 -62 44 -248 -83z m-915 -530 c6 -8 9 -19 6 -24 -4 -6 -65 -49 -136 -97
-96 -65 -133 -85 -141 -77 -7 7 -9 18 -6 26 6 17 237 186 253 187 6 0 17 -7
24 -15z m88 -107 c3 -26 -7 -35 -126 -112 -141 -93 -171 -106 -191 -82 -22 26
8 58 140 146 134 89 171 99 177 48z m41 -92 c9 -11 9 -20 2 -34 -13 -25 -238
-152 -268 -152 -25 0 -30 18 -10 42 12 15 245 158 258 158 4 0 12 -6 18 -14z"/>
<path d="M2586 2142 c-2 -4 3 -30 11 -57 32 -96 -14 -207 -112 -273 -53 -35
-69 -62 -38 -62 32 0 119 67 151 115 41 63 58 144 43 209 -15 63 -39 94 -55
68z"/>
<path d="M2123 2133 c-16 -6 -17 -39 -2 -49 6 -3 18 1 27 10 14 14 14 18 2 30
-8 7 -21 12 -27 9z"/>
<path d="M152 2120 c-60 -9 -82 -23 -82 -54 0 -52 49 -75 282 -136 177 -47
211 -64 271 -130 65 -72 101 -177 142 -414 26 -148 112 -302 215 -385 34 -27
43 -30 84 -25 51 7 96 -14 141 -68 l26 -31 -6 29 c-3 16 -8 39 -11 52 -7 35
14 100 39 117 27 19 71 19 87 1 9 -11 18 -13 37 -5 33 12 58 4 83 -28 26 -33
26 -83 -1 -134 l-20 -41 38 26 c48 33 109 35 147 5 23 -18 27 -28 24 -63 -2
-29 2 -46 15 -59 13 -13 17 -27 13 -42 -7 -28 -10 -27 144 -56 157 -29 408
-37 508 -15 40 8 96 26 125 40 l52 24 -135 1 c-171 1 -273 14 -428 52 -119 29
-288 87 -279 95 2 2 56 -7 120 -21 430 -93 755 -92 929 2 26 14 49 32 52 39 7
17 8 17 -87 -1 -152 -29 -463 -16 -702 30 -129 25 -301 69 -284 72 8 2 116 -8
240 -23 293 -34 581 -43 699 -20 47 9 113 30 148 47 80 39 105 75 99 142 -4
42 -11 55 -52 97 -44 45 -166 120 -194 120 -28 0 -5 -32 53 -74 78 -56 106
-92 106 -139 0 -64 -52 -89 -227 -109 -224 -26 -829 55 -1182 157 -433 126
-632 299 -451 391 65 33 127 44 283 51 124 6 137 8 137 25 0 13 -7 18 -29 18
-57 0 -267 31 -346 51 -101 26 -173 64 -272 145 -135 111 -187 150 -234 177
-98 57 -215 82 -317 67z"/>
<path d="M1904 2109 c-3 -6 0 -18 9 -26 18 -18 37 -9 37 18 0 21 -34 27 -46 8z"/>
<path d="M1632 2048 c4 -30 43 -33 43 -3 0 13 -8 21 -23 23 -20 3 -23 0 -20
-20z"/>
<path d="M1502 1888 c4 -30 43 -33 43 -3 0 13 -8 21 -23 23 -20 3 -23 0 -20
-20z"/>
<path d="M1968 1898 c-8 -21 2 -38 23 -38 14 0 19 7 19 25 0 18 -5 25 -19 25
-10 0 -21 -6 -23 -12z"/>
<path d="M1704 1845 c-4 -9 -2 -21 4 -27 15 -15 44 -1 40 19 -4 23 -36 29 -44
8z"/>
<path d="M2107 1793 c-15 -14 -7 -43 12 -43 24 0 33 13 25 34 -6 16 -25 21
-37 9z"/>
<path d="M1856 1765 c-8 -22 1 -35 25 -35 15 0 20 6 17 22 -4 27 -33 36 -42
13z"/>
<path d="M1457 1623 c-12 -12 -7 -41 7 -46 22 -9 41 19 26 38 -14 16 -23 19
-33 8z"/>
<path d="M1972 1617 c-16 -19 11 -58 28 -41 14 14 10 46 -6 51 -6 2 -16 -2
-22 -10z"/>
<path d="M1733 1603 c-16 -6 -17 -25 -2 -40 15 -15 39 -5 39 17 0 19 -17 30
-37 23z"/>
<path d="M1260 1551 c0 -15 6 -21 21 -21 14 0 19 5 17 17 -5 26 -38 29 -38 4z"/>
<path d="M925 1520 c-8 -14 3 -30 21 -30 8 0 14 9 14 20 0 21 -24 28 -35 10z"/>
<path d="M1126 1465 c-3 -9 1 -18 10 -22 19 -7 39 11 30 26 -10 16 -33 13 -40
-4z"/>
<path d="M1714 1425 c-4 -9 -2 -21 4 -27 15 -15 44 -1 40 19 -4 23 -36 29 -44
8z"/>
<path d="M1512 1388 c4 -27 33 -36 42 -13 8 22 -1 35 -25 35 -15 0 -20 -6 -17
-22z"/>
<path d="M1293 1304 c-8 -21 13 -42 28 -27 13 13 5 43 -11 43 -6 0 -13 -7 -17
-16z"/>
<path d="M1913 1254 c-8 -21 13 -42 28 -27 13 13 5 43 -11 43 -6 0 -13 -7 -17
-16z"/>
<path d="M1670 1236 c-13 -17 -6 -36 15 -36 19 0 26 27 11 39 -10 8 -17 7 -26
-3z"/>
<path d="M2663 1224 c-8 -21 13 -42 28 -27 13 13 5 43 -11 43 -6 0 -13 -7 -17
-16z"/>
<path d="M2013 1174 c-8 -21 13 -42 28 -27 13 13 5 43 -11 43 -6 0 -13 -7 -17
-16z"/>
<path d="M2550 1129 c0 -14 5 -19 17 -17 26 5 29 38 4 38 -15 0 -21 -6 -21
-21z"/>
<path d="M2440 1099 c0 -14 5 -19 17 -17 26 5 29 38 4 38 -15 0 -21 -6 -21
-21z"/>
</g>
</svg>
